# xmcd
#
# Track frame offsets:
#	150
#	23006
#	47006
#	67005
#	84434
#	113003
#	137002
#	157573
#	177000
#	201000
#	222428
#	246995
#	278422
#
# Disc length: 4005 seconds
#
# Revision: 1
# Processed by: cddbd v1.5.2PL0 Copyright (c) Steve Scherf et al.
# Submitted via: EasyCDDAExtractor 10.2.0.1
#
DISCID=a50fa30d
DTITLE=Various Artist - Azuli Presents Miami 2009 [CD1 - Mixed By David Picci
DTITLE=oni) [MIXED]
DYEAR=2009
DGENRE=House
TTITLE0=Vandalism - Hablando (Club instrumental) 
TTITLE1=Ee-Sma - Speak (Original mix) 
TTITLE2=Overzero - In My Bedroom (James Talk remix) 
TTITLE3=Alex Kenji - A Lot Of (Original mix) 
TTITLE4=Indo - R U Sleeping (D.O.N.S. remix) 
TTITLE5=Meck - Windmills (Club mix) 
TTITLE6=Danny Clark and Jay Benham feat SuSu Bobien - Wondrous (David Penn remix
TTITLE6=) 
TTITLE7=Joris K. - New Groove 
TTITLE8=Afefe Iku - Mirror Dance 
TTITLE9=X-Press 2 feat David Byrne - Lazy (Mowgli Goes Deep mix) 
TTITLE10=Chris Lake - Only One 
TTITLE11=Shur-i-Kan - Gripper (Original mix) 
TTITLE12=Afro Medusa - Pasilda (A.T.F.C. remix) 
EXTD=
EXTT0=
EXTT1=
EXTT2=
EXTT3=
EXTT4=
EXTT5=
EXTT6=
EXTT7=
EXTT8=
EXTT9=
EXTT10=
EXTT11=
EXTT12=
PLAYORDER=
